# xmcd
#
# Track frame offsets:
#	150
#	13709
#	27113
#	40121
#	52645
#	65528
#	79856
#	92488
#	105703
#	119624
#	133515
#	148493
#	161313
#	176752
#	190086
#	205933
#	220278
#	235449
#	250131
#	263931
#	279404
#	293365
#	306107
#	320736
#	332262
#
# Disc length: 4612 seconds
#
# Revision: 2372536656
# Processed by: cddbd v1.5.2PL0 Copyright (c) Steve Scherf et al.
# Submitted via: EZCDAudioConverter 8.0.7.1
#
DISCID=64120219
DTITLE=Jimmie Rodgers - Rough Guide To Jimmie Rodgers
DYEAR=2013
DGENRE=Country
TTITLE0=Mule Skinner Blues (Blue Yodel #8)
TTITLE1=Somewhere Down Below The Dixon Line
TTITLE2=Frankie And Johnnie
TTITLE3=Waiting For A Train
TTITLE4=Any Old Time
TTITLE5=Why There's A Tear In My Eye
TTITLE6=My Blue-Eyed Jane
TTITLE7=In The Jailhouse Now, No. 2
TTITLE8=In The Hills Of Tennessee
TTITLE9=T.B. Blues
TTITLE10=Away Out On The Mountain
TTITLE11=Dear Old Sunny South By The Sea
TTITLE12=Blue Yodel #1 (T Is For Texas)
TTITLE13=Miss The Mississippi And You
TTITLE14=Ben Dewberry's Final Run
TTITLE15=I'm Lonely And Blue
TTITLE16=Jimmie Rodgers' Last Blue Yodel
TTITLE17=When The Cactus Is In Bloom
TTITLE18=My Little Old Home Down In New Orleans
TTITLE19=Gambling Bar Room Blues
TTITLE20=My Little Lady
TTITLE21=Jimmie The Kid
TTITLE22=Yodeling Cowboy
TTITLE23=My Rough And Rowdy Ways
TTITLE24=I'm Free (From The Chain Gang Now)
EXTD=
EXTT0=
EXTT1=
EXTT2=
EXTT3=
EXTT4=
EXTT5=
EXTT6=
EXTT7=
EXTT8=
EXTT9=
EXTT10=
EXTT11=
EXTT12=
EXTT13=
EXTT14=
EXTT15=
EXTT16=
EXTT17=
EXTT18=
EXTT19=
EXTT20=
EXTT21=
EXTT22=
EXTT23=
EXTT24=
PLAYORDER=
